<svg
    width="212"
    height="212"
    viewBox="0 0 212 212"
    fill="none"
    xmlns="http://www.w3.org/2000/svg"
>
    <rect width="212" height="212" fill="black" />
    <rect
    x="33.1686"
    y="108.911"
    width="6.94262"
    height="20.4217"
    rx="3.47131"
    transform="rotate(-4.98925 33.1686 108.911)"
    fill="#FF2323"
    />
    <path
    d="M34.0153 102.724C33.8628 104.096 34.8517 105.332 36.2239 105.485C37.5962 105.637 38.8322 104.648 38.9847 103.276L34.0153 102.724ZM174.51 103.221C174.632 104.597 175.846 105.612 177.221 105.49C178.597 105.368 179.612 104.154 179.49 102.779L174.51 103.221ZM65.3297 48.5566L63.8205 46.5635L65.3297 48.5566ZM38.9847 103.276C41.4318 81.2523 48.1767 64.6809 66.8389 50.5497L63.8205 46.5635C43.7731 61.7437 36.5682 79.7476 34.0153 102.724L38.9847 103.276ZM66.8389 50.5497C85.6845 36.2796 111.177 33.1268 132.656 41.6831C154.017 50.1927 171.589 70.3659 174.51 103.221L179.49 102.779C176.411 68.1341 157.702 46.2787 134.506 37.0381C111.427 27.8443 84.0839 31.2198 63.8205 46.5635L66.8389 50.5497Z"
    fill="#FF2323"
    />
    <path
    d="M54.5 62C65 50 83.5 36 109 36C133 36 151.5 49.5 159.5 62"
    stroke="#FF2323"
    stroke-width="10"
    />
    <rect
    width="6.94262"
    height="20.4217"
    rx="3.47131"
    transform="matrix(-0.997128 -0.0757337 -0.0757337 0.997128 179.576 108.734)"
    fill="#FF2323"
    />
    <rect
    x="41.856"
    y="102.11"
    width="12.4238"
    height="31.8234"
    rx="4"
    transform="rotate(-4.98925 41.856 102.11)"
    fill="#FF2323"
    stroke="black"
    stroke-width="2"
    />
    <rect
    x="-1.07286"
    y="0.921394"
    width="12.5848"
    height="31.8234"
    rx="4"
    transform="matrix(-0.997128 -0.0757337 -0.0757337 0.997128 169.44 101.078)"
    fill="#FF2323"
    stroke="black"
    stroke-width="2"
    />
    <path
    d="M41.9854 62.1695L61.6633 140.558L159.191 128.275L156.084 47.7999L138.901 79.4274L119.256 27.475L103.367 81.3828L76.9235 32.8063L69.45 88.1741L41.9854 62.1695Z"
    fill="#ECCE66"
    stroke="white"
    stroke-width="4"
    stroke-linejoin="round"
    />
    <path
    d="M61.3477 175C61.228 175 61.1203 174.964 61.0245 174.892C60.9527 174.797 60.9168 174.689 60.9168 174.569V150.293C60.9168 150.173 60.9527 150.077 61.0245 150.005C61.1203 149.91 61.228 149.862 61.3477 149.862H65.5494C65.6691 149.862 65.7649 149.91 65.8367 150.005C65.9325 150.077 65.9803 150.173 65.9803 150.293V159.342C65.9803 159.438 66.0043 159.498 66.0522 159.522C66.124 159.522 66.1719 159.474 66.1958 159.378L70.8284 150.185C70.9481 149.97 71.1157 149.862 71.3312 149.862H75.7843C75.9518 149.862 76.0596 149.91 76.1075 150.005C76.1793 150.077 76.1793 150.197 76.1075 150.365L70.7925 160.707C70.7686 160.803 70.7566 160.875 70.7566 160.923L76.3948 174.497C76.4187 174.545 76.4307 174.617 76.4307 174.713C76.4307 174.904 76.311 175 76.0716 175H71.5826C71.3192 175 71.1516 174.892 71.0798 174.677L67.345 165.268C67.3211 165.196 67.2851 165.172 67.2373 165.196C67.1894 165.196 67.1415 165.22 67.0936 165.268L66.0522 167.135C66.0043 167.231 65.9803 167.303 65.9803 167.351V174.569C65.9803 174.689 65.9325 174.797 65.8367 174.892C65.7649 174.964 65.6691 175 65.5494 175H61.3477ZM85.5957 175.287C83.441 175.287 81.7053 174.617 80.3885 173.276C79.0957 171.912 78.4493 170.104 78.4493 167.854V150.293C78.4493 150.173 78.4852 150.077 78.557 150.005C78.6528 149.91 78.7605 149.862 78.8802 149.862H83.0819C83.2016 149.862 83.2974 149.91 83.3692 150.005C83.465 150.077 83.5129 150.173 83.5129 150.293V168.356C83.5129 169.122 83.7044 169.745 84.0875 170.224C84.4705 170.703 84.9733 170.942 85.5957 170.942C86.2182 170.942 86.709 170.703 87.0681 170.224C87.4512 169.745 87.6427 169.122 87.6427 168.356V150.293C87.6427 150.173 87.6786 150.077 87.7505 150.005C87.8462 149.91 87.954 149.862 88.0737 149.862H92.2753C92.395 149.862 92.4908 149.91 92.5626 150.005C92.6584 150.077 92.7063 150.173 92.7063 150.293V167.854C92.7063 170.104 92.0479 171.912 90.7311 173.276C89.4383 174.617 87.7265 175.287 85.5957 175.287ZM105.802 150.293C105.802 150.173 105.838 150.077 105.909 150.005C106.005 149.91 106.113 149.862 106.233 149.862H110.398C110.518 149.862 110.614 149.91 110.686 150.005C110.781 150.077 110.829 150.173 110.829 150.293V174.569C110.829 174.689 110.781 174.797 110.686 174.892C110.614 174.964 110.518 175 110.398 175H105.658C105.419 175 105.263 174.88 105.191 174.641L100.738 160.743C100.714 160.671 100.666 160.647 100.595 160.671C100.547 160.671 100.523 160.707 100.523 160.779L100.559 174.569C100.559 174.689 100.511 174.797 100.415 174.892C100.343 174.964 100.247 175 100.128 175H95.9619C95.8422 175 95.7345 174.964 95.6387 174.892C95.5669 174.797 95.531 174.689 95.531 174.569V150.293C95.531 150.173 95.5669 150.077 95.6387 150.005C95.7345 149.91 95.8422 149.862 95.9619 149.862H100.666C100.906 149.862 101.061 149.981 101.133 150.221L105.622 164.119C105.646 164.191 105.682 164.226 105.73 164.226C105.802 164.203 105.838 164.155 105.838 164.083L105.802 150.293ZM120.765 175.287C118.61 175.287 116.875 174.677 115.558 173.456C114.265 172.211 113.619 170.559 113.619 168.5V156.362C113.619 154.303 114.265 152.663 115.558 151.442C116.875 150.197 118.61 149.574 120.765 149.574C122.92 149.574 124.656 150.197 125.972 151.442C127.289 152.687 127.947 154.339 127.947 156.398V157.762C127.947 157.882 127.9 157.99 127.804 158.086C127.732 158.157 127.636 158.193 127.517 158.193H123.315C123.195 158.193 123.087 158.157 122.992 158.086C122.92 157.99 122.884 157.882 122.884 157.762V156.326C122.884 155.608 122.692 155.033 122.309 154.602C121.926 154.147 121.412 153.92 120.765 153.92C120.143 153.92 119.64 154.147 119.257 154.602C118.874 155.033 118.682 155.608 118.682 156.326V168.536C118.682 169.254 118.874 169.841 119.257 170.296C119.64 170.727 120.143 170.942 120.765 170.942C121.412 170.942 121.926 170.727 122.309 170.296C122.692 169.841 122.884 169.254 122.884 168.536V165.663C122.884 165.543 122.824 165.483 122.704 165.483H121.124C121.005 165.483 120.897 165.447 120.801 165.376C120.729 165.28 120.693 165.172 120.693 165.052V161.856C120.693 161.737 120.729 161.641 120.801 161.569C120.897 161.473 121.005 161.425 121.124 161.425H127.517C127.636 161.425 127.732 161.473 127.804 161.569C127.9 161.641 127.947 161.737 127.947 161.856V168.5C127.947 170.559 127.289 172.211 125.972 173.456C124.656 174.677 122.92 175.287 120.765 175.287Z"
    fill="white"
    />
    <path
    d="M137.636 175.287C135.434 175.287 133.674 174.641 132.357 173.348C131.041 172.055 130.382 170.331 130.382 168.177V156.685C130.382 154.53 131.041 152.807 132.357 151.514C133.674 150.221 135.434 149.574 137.636 149.574C139.839 149.574 141.599 150.221 142.915 151.514C144.256 152.807 144.926 154.53 144.926 156.685V168.177C144.926 170.331 144.256 172.055 142.915 173.348C141.599 174.641 139.839 175.287 137.636 175.287ZM137.636 170.942C138.307 170.942 138.845 170.715 139.252 170.26C139.659 169.781 139.863 169.158 139.863 168.392V156.47C139.863 155.703 139.659 155.093 139.252 154.638C138.845 154.159 138.307 153.92 137.636 153.92C136.966 153.92 136.427 154.159 136.02 154.638C135.637 155.093 135.446 155.703 135.446 156.47V168.392C135.446 169.158 135.637 169.781 136.02 170.26C136.427 170.715 136.966 170.942 137.636 170.942ZM154.503 175.287C152.348 175.287 150.612 174.677 149.295 173.456C148.003 172.211 147.356 170.559 147.356 168.5V156.362C147.356 154.303 148.003 152.663 149.295 151.442C150.612 150.197 152.348 149.574 154.503 149.574C156.657 149.574 158.393 150.197 159.71 151.442C161.027 152.687 161.685 154.339 161.685 156.398V157.762C161.685 157.882 161.637 157.99 161.541 158.086C161.469 158.157 161.374 158.193 161.254 158.193H157.052C156.933 158.193 156.825 158.157 156.729 158.086C156.657 157.99 156.621 157.882 156.621 157.762V156.326C156.621 155.608 156.43 155.033 156.047 154.602C155.664 154.147 155.149 153.92 154.503 153.92C153.88 153.92 153.377 154.147 152.994 154.602C152.611 155.033 152.42 155.608 152.42 156.326V168.536C152.42 169.254 152.611 169.841 152.994 170.296C153.377 170.727 153.88 170.942 154.503 170.942C155.149 170.942 155.664 170.727 156.047 170.296C156.43 169.841 156.621 169.254 156.621 168.536V165.663C156.621 165.543 156.561 165.483 156.442 165.483H154.862C154.742 165.483 154.634 165.447 154.538 165.376C154.467 165.28 154.431 165.172 154.431 165.052V161.856C154.431 161.737 154.467 161.641 154.538 161.569C154.634 161.473 154.742 161.425 154.862 161.425H161.254C161.374 161.425 161.469 161.473 161.541 161.569C161.637 161.641 161.685 161.737 161.685 161.856V168.5C161.685 170.559 161.027 172.211 159.71 173.456C158.393 174.677 156.657 175.287 154.503 175.287Z"
    fill="#FF2323"
    />
</svg>
